<svg width="26" height="26" viewBox="0 0 26 26" fill="none" xmlns="http://www.w3.org/2000/svg">
<path d="M19.0001 11.4067C19.0001 10.9453 19.0001 10.7147 19.0625 10.5093C19.2437 9.912 19.7225 9.68133 20.2025 9.43867C20.7401 9.16533 21.0089 9.02933 21.2765 9.00533C21.5789 8.97867 21.8825 9.05067 22.1417 9.212C22.4849 9.42533 22.7248 9.83333 22.9696 10.164C24.1012 11.692 24.6676 12.456 24.874 13.2973C25.042 13.9773 25.042 14.6893 24.874 15.368C24.5728 16.5973 23.6188 17.6267 22.912 18.5813C22.5508 19.068 22.3697 19.312 22.1417 19.4547C21.878 19.6171 21.5769 19.689 21.2765 19.6613C21.0089 19.6373 20.7401 19.5013 20.2013 19.228C19.7213 18.9853 19.2437 18.7547 19.0625 18.1573C19.0001 17.952 19.0001 17.7213 19.0001 17.26V11.4067ZM7.00036 11.4067C7.00036 10.8253 6.98596 10.304 6.56357 9.896C6.40997 9.748 6.20597 9.64533 5.79918 9.43867C5.26039 9.16667 4.9916 9.02933 4.724 9.00533C3.92362 8.93333 3.49283 9.54133 3.03204 10.1653C1.89926 11.692 1.33287 12.456 1.12527 13.2987C0.958242 13.9764 0.958242 14.6916 1.12527 15.3693C1.42767 16.5973 2.38285 17.628 3.08843 18.5813C3.53363 19.1813 3.95962 19.7293 4.724 19.6613C4.9916 19.6373 5.26039 19.5013 5.79918 19.228C6.20717 19.0227 6.40997 18.9187 6.56357 18.7707C6.98596 18.3627 7.00036 17.8413 7.00036 17.2613V11.4067Z" stroke="#C1C1C1" stroke-width="1.5" stroke-linecap="round" stroke-linejoin="round"/>
<path d="M4.60046 9C4.60046 4.58133 8.36119 1 13.0003 1C17.6394 1 21.4001 4.58133 21.4001 9M21.4001 19.6667V20.7333C21.4001 23.0893 19.2522 25 16.6002 25H14.2003" stroke="#C1C1C1" stroke-width="1.5" stroke-linecap="round" stroke-linejoin="round"/>
</svg>
