<svg width="24" height="24" viewBox="0 0 24 24" fill="none" xmlns="http://www.w3.org/2000/svg">
<path fill-rule="evenodd" clip-rule="evenodd" d="M9.35824 4.726C9.85562 5.10833 10.1416 5.67845 10.1416 6.28906C10.1416 11.22 10.3116 12.5469 11.0066 13.0518C11.4626 13.3813 12.0875 13.3779 14.193 13.3217C15.1717 13.2925 16.4249 13.2565 18.0663 13.2565C18.7211 13.2565 19.3379 13.532 19.756 14.0099C20.1443 14.453 20.3143 15.0332 20.2247 15.6045C19.4574 20.4679 15.2303 24 10.1738 24C4.56368 24.0011 0 19.5335 0 14.0425C0 9.68956 3.36332 5.33548 7.49739 4.33805C7.81744 4.26207 8.15083 4.25749 8.47293 4.32464C8.79503 4.3918 9.09759 4.52896 9.35824 4.726ZM8.02004 5.96295C7.9829 5.96264 7.94587 5.9668 7.90976 5.97532C4.4982 6.79734 1.72301 10.4171 1.72301 14.0414C1.72301 18.6024 5.51363 22.3144 10.1738 22.3144C14.3745 22.3144 17.8848 19.385 18.5212 15.3481C18.5258 15.3143 18.5419 15.2165 18.4477 15.1063C18.3996 15.0542 18.3407 15.0127 18.275 14.9846C18.2092 14.9564 18.1381 14.9424 18.0663 14.9432C16.4467 14.9432 15.2084 14.9804 14.2424 15.0073C11.9037 15.0748 10.9365 15.1018 9.98082 14.4069C8.6139 13.4173 8.43471 11.7497 8.41978 7.07509V6.28906C8.41985 6.24274 8.40851 6.19709 8.38671 6.15598C8.36491 6.11487 8.33331 6.07951 8.29457 6.05291C8.21592 5.9937 8.11925 5.96203 8.02004 5.96295ZM20.7347 3.07298C22.7541 5.04873 24.036 7.64521 23.9992 9.68844C23.9944 10.0722 23.8506 10.4418 23.5933 10.7314C23.336 11.021 22.982 11.2117 22.5944 11.2695C21.0345 11.5 19.2081 11.5697 17.5919 11.5697C16.3943 11.5683 15.1969 11.5342 14.0012 11.4674C13.5387 11.4408 13.1022 11.2489 12.7748 10.9279C12.4474 10.607 12.2519 10.1795 12.2253 9.72667C12.1357 8.24008 11.9416 4.46287 12.0794 1.54028C12.0962 1.1336 12.2705 0.748425 12.5668 0.462933C12.8631 0.177441 13.2593 0.0130329 13.675 0.00308292C16.1297 -0.0666363 18.6625 1.04887 20.7347 3.07298ZM13.822 1.68759H13.7967C13.6704 4.52022 13.8576 8.17935 13.9449 9.62884C13.9458 9.66924 13.9625 9.70776 13.9915 9.73644C14.0206 9.76512 14.0599 9.78175 14.1011 9.7829C15.2819 9.84924 19.3505 10.0337 22.2762 9.61197C22.2831 8.03317 21.1792 5.89211 19.5171 4.26608C17.8125 2.59956 15.7954 1.68759 13.822 1.68759Z" fill="#C1C1C1" fill-opacity="0.92"/>
</svg>
