<svg width="24" height="24" viewBox="0 0 24 24" fill="none" xmlns="http://www.w3.org/2000/svg">
<path d="M9.15995 10.8702C9.05995 10.8602 8.93995 10.8602 8.82995 10.8702C7.68216 10.8313 6.5946 10.3471 5.79758 9.52019C5.00057 8.69332 4.55669 7.58869 4.55995 6.44023C4.55995 3.99023 6.53995 2.00023 8.99995 2.00023C10.1762 1.97902 11.3127 2.42593 12.1594 3.24265C13.0061 4.05937 13.4937 5.179 13.515 6.35523C13.5362 7.53147 13.0893 8.66796 12.2725 9.51468C11.4558 10.3614 10.3362 10.849 9.15995 10.8702Z" stroke="#C1C1C1" stroke-opacity="0.92" stroke-width="1.5" stroke-linecap="round" stroke-linejoin="round"/>
<path opacity="0.4" d="M16.41 4C18.35 4 19.91 5.57 19.91 7.5C19.91 9.39 18.41 10.93 16.54 11C16.4537 10.99 16.3664 10.99 16.28 11" stroke="#C1C1C1" stroke-opacity="0.92" stroke-width="1.5" stroke-linecap="round" stroke-linejoin="round"/>
<path d="M4.15997 14.56C1.73997 16.18 1.73997 18.82 4.15997 20.43C6.90997 22.27 11.42 22.27 14.17 20.43C16.59 18.81 16.59 16.17 14.17 14.56C11.43 12.73 6.91997 12.73 4.15997 14.56V14.56Z" stroke="#C1C1C1" stroke-opacity="0.92" stroke-width="1.5" stroke-linecap="round" stroke-linejoin="round"/>
<path opacity="0.4" d="M18.34 20C19.06 19.85 19.74 19.56 20.3 19.13C21.86 17.96 21.86 16.03 20.3 14.86C19.75 14.44 19.08 14.16 18.37 14" stroke="#C1C1C1" stroke-opacity="0.92" stroke-width="1.5" stroke-linecap="round" stroke-linejoin="round"/>
</svg>
